<mxfile host="app.diagrams.net" agent="Mozilla/5.0 (X11; Ubuntu; Linux x86_64; rv:139.0) Gecko/20100101 Firefox/139.0" version="27.1.6">
  <diagram name="Page-1" id="NV9IXiQ_k7_0vS1cPYlT">
    <mxGraphModel dx="815" dy="418" grid="1" gridSize="10" guides="1" tooltips="1" connect="1" arrows="1" fold="1" page="1" pageScale="1" pageWidth="850" pageHeight="1100" math="0" shadow="0">
      <root>
        <mxCell id="0" />
        <mxCell id="1" parent="0" />
        <mxCell id="eeI0QnFhEGPRgBWTAaSA-4" style="edgeStyle=orthogonalEdgeStyle;rounded=0;orthogonalLoop=1;jettySize=auto;html=1;exitX=1;exitY=0.5;exitDx=0;exitDy=0;entryX=0;entryY=0.5;entryDx=0;entryDy=0;" edge="1" parent="1" source="eeI0QnFhEGPRgBWTAaSA-1" target="eeI0QnFhEGPRgBWTAaSA-2">
          <mxGeometry relative="1" as="geometry" />
        </mxCell>
        <mxCell id="eeI0QnFhEGPRgBWTAaSA-8" value="Data Binding" style="edgeLabel;html=1;align=center;verticalAlign=middle;resizable=0;points=[];labelBackgroundColor=none;" vertex="1" connectable="0" parent="eeI0QnFhEGPRgBWTAaSA-4">
          <mxGeometry x="-0.4274" y="-2" relative="1" as="geometry">
            <mxPoint x="11" y="-12" as="offset" />
          </mxGeometry>
        </mxCell>
        <mxCell id="eeI0QnFhEGPRgBWTAaSA-1" value="View" style="rounded=0;whiteSpace=wrap;html=1;fillColor=#d5e8d4;strokeColor=#82b366;" vertex="1" parent="1">
          <mxGeometry x="20" y="20" width="120" height="40" as="geometry" />
        </mxCell>
        <mxCell id="eeI0QnFhEGPRgBWTAaSA-5" style="edgeStyle=orthogonalEdgeStyle;rounded=0;orthogonalLoop=1;jettySize=auto;html=1;exitX=1;exitY=0.5;exitDx=0;exitDy=0;entryX=0;entryY=0.5;entryDx=0;entryDy=0;" edge="1" parent="1" source="eeI0QnFhEGPRgBWTAaSA-2" target="eeI0QnFhEGPRgBWTAaSA-3">
          <mxGeometry relative="1" as="geometry" />
        </mxCell>
        <mxCell id="eeI0QnFhEGPRgBWTAaSA-10" value="Update" style="edgeLabel;html=1;align=center;verticalAlign=middle;resizable=0;points=[];labelBackgroundColor=none;" vertex="1" connectable="0" parent="eeI0QnFhEGPRgBWTAaSA-5">
          <mxGeometry x="-0.3861" y="-1" relative="1" as="geometry">
            <mxPoint x="-1" y="-11" as="offset" />
          </mxGeometry>
        </mxCell>
        <mxCell id="eeI0QnFhEGPRgBWTAaSA-7" style="edgeStyle=orthogonalEdgeStyle;rounded=0;orthogonalLoop=1;jettySize=auto;html=1;exitX=0.25;exitY=1;exitDx=0;exitDy=0;entryX=0.75;entryY=1;entryDx=0;entryDy=0;dashed=1;" edge="1" parent="1" source="eeI0QnFhEGPRgBWTAaSA-2" target="eeI0QnFhEGPRgBWTAaSA-1">
          <mxGeometry relative="1" as="geometry" />
        </mxCell>
        <mxCell id="eeI0QnFhEGPRgBWTAaSA-11" value="Notifications" style="edgeLabel;html=1;align=center;verticalAlign=middle;resizable=0;points=[];labelBackgroundColor=none;" vertex="1" connectable="0" parent="eeI0QnFhEGPRgBWTAaSA-7">
          <mxGeometry x="0.2933" y="-1" relative="1" as="geometry">
            <mxPoint x="79" y="11" as="offset" />
          </mxGeometry>
        </mxCell>
        <mxCell id="eeI0QnFhEGPRgBWTAaSA-2" value="View Model" style="rounded=0;whiteSpace=wrap;html=1;fillColor=#ffe6cc;strokeColor=#d79b00;" vertex="1" parent="1">
          <mxGeometry x="240" y="20" width="120" height="40" as="geometry" />
        </mxCell>
        <mxCell id="eeI0QnFhEGPRgBWTAaSA-6" style="edgeStyle=orthogonalEdgeStyle;rounded=0;orthogonalLoop=1;jettySize=auto;html=1;exitX=0.25;exitY=1;exitDx=0;exitDy=0;entryX=0.75;entryY=1;entryDx=0;entryDy=0;dashed=1;" edge="1" parent="1" source="eeI0QnFhEGPRgBWTAaSA-3" target="eeI0QnFhEGPRgBWTAaSA-2">
          <mxGeometry relative="1" as="geometry" />
        </mxCell>
        <mxCell id="eeI0QnFhEGPRgBWTAaSA-12" value="Notifications" style="edgeLabel;html=1;align=center;verticalAlign=middle;resizable=0;points=[];labelBackgroundColor=none;" vertex="1" connectable="0" parent="eeI0QnFhEGPRgBWTAaSA-6">
          <mxGeometry x="-0.6733" y="1" relative="1" as="geometry">
            <mxPoint x="-17" y="9" as="offset" />
          </mxGeometry>
        </mxCell>
        <mxCell id="eeI0QnFhEGPRgBWTAaSA-3" value="Model" style="rounded=0;whiteSpace=wrap;html=1;fillColor=#dae8fc;strokeColor=#6c8ebf;" vertex="1" parent="1">
          <mxGeometry x="460" y="20" width="120" height="40" as="geometry" />
        </mxCell>
      </root>
    </mxGraphModel>
  </diagram>
</mxfile>
